<?xml version="1.0" encoding="iso-8859-1"?>
<!-- Generator: Adobe Illustrator 19.0.0, SVG Export Plug-In . SVG Version: 6.00 Build 0)  -->
<svg version="1.1" id="Capa_1" xmlns="http://www.w3.org/2000/svg" xmlns:xlink="http://www.w3.org/1999/xlink" x="0px" y="0px"
	 viewBox="0 0 512 512" style="enable-background:new 0 0 512 512;" xml:space="preserve">
<g>
	<g>
		<path d="M392,113.5c-13.483,0-26.604,2.192-39.142,6.529C334.078,100.111,307.608,88.5,280,88.5c-18.14,0-36,5.009-51.468,14.285
			C206.842,84.044,178.872,73.5,150,73.5c-66.168,0-120,53.832-120,120c0,8.773,0.946,17.466,2.819,25.955
			C12.108,238.298,0,265.281,0,293.5c0,53.895,42.852,97.969,96.275,99.932C118.976,421.79,153.441,438.5,190,438.5
			c20.982,0,41.639-5.5,59.736-15.905c14.103-8.108,26.451-19.053,36.213-32.021c7.841,1.945,15.892,2.927,24.051,2.927
			c31.883,0,61.175-14.803,80.019-40.017c0.663,0.011,1.324,0.017,1.981,0.017c66.168,0,120-53.832,120-120S458.168,113.5,392,113.5
			z M392,323.5c-2.691,0-5.47-0.128-8.26-0.381l-9.246-0.839l-4.875,7.902C356.75,351.045,334.462,363.5,310,363.5
			c-8.544,0-16.913-1.536-24.873-4.564l-11.668-4.439l-6.484,10.669C250.483,392.3,221.708,408.5,190,408.5
			c-29.44,0-57.076-14.454-73.924-38.664l-4.718-6.778l-8.251,0.361c-1.284,0.056-2.243,0.081-3.107,0.081
			c-38.598,0-70-31.402-70-70c0-22.201,10.714-43.313,28.659-56.477l8.648-6.344L64.1,220.443c-2.72-8.684-4.1-17.75-4.1-26.943
			c0-49.626,40.374-90,90-90c24.942,0,48.99,10.496,65.978,28.798l9.479,10.212l10.882-8.701
			C248.864,123.794,263.962,118.5,280,118.5c22.413,0,42.933,10.353,56.297,28.404l7.238,9.776l11.061-5.063
			c11.768-5.386,24.353-8.117,37.404-8.117c49.626,0,90,40.374,90,90C482,283.126,441.626,323.5,392,323.5z"/>
	</g>
</g>
<g>
</g>
<g>
</g>
<g>
</g>
<g>
</g>
<g>
</g>
<g>
</g>
<g>
</g>
<g>
</g>
<g>
</g>
<g>
</g>
<g>
</g>
<g>
</g>
<g>
</g>
<g>
</g>
<g>
</g>
</svg>
